<?xml version="1.0" encoding="UTF-8"?><svg id="Layer_1" xmlns="http://www.w3.org/2000/svg" viewBox="0 0 789 789.73"><defs><style>.cls-1{fill:#fff;}</style></defs><path class="cls-1" d="M685.95,209.53L388.1,35.83c-3.68-2.15-8.23-2.17-11.93-.05L76.82,206.87c-3.7,2.11-5.99,6.04-6.01,10.3l-1.51,344.8c-.02,4.26,2.24,8.21,5.92,10.36l297.85,173.7c3.68,2.15,8.23,2.17,11.93.05l299.35-171.09c3.7-2.11,5.99-6.04,6.01-10.3l1.51-344.8c.02-4.26-2.24-8.21-5.92-10.36ZM393.51,78.73c0-3.84,4.17-6.22,7.48-4.27l246.59,143.01c3.1,1.83,3.07,6.32-.04,8.12l-82.23,47.44c-2.17,1.25-4.84,1.24-7-.03l-161.37-92.28c-2.12-1.25-3.43-3.53-3.43-5.99v-95.99ZM121.22,214.6l238.14-139.86c2.84-1.67,6.41.38,6.41,3.67v96.53c0,2.34-1.23,4.5-3.23,5.7l-154.76,92.39c-2.08,1.24-4.68,1.25-6.77.02l-79.79-47c-4.36-2.57-4.36-8.88,0-11.44ZM365.77,693.06c0,4.59-5,7.43-8.94,5.07l-256.36-153.37c-1.78-1.07-2.87-2.99-2.87-5.07V255.56c0-4.77,5.17-7.75,9.3-5.36l85.68,48.01c1.9,1.1,3.08,3.14,3.09,5.34l-.36,183.62c0,1.06-.65,2.1-.13,3.02l1.97,1.86c.54.96,1.33,1.76,2.28,2.31l163.26,94.51c1.9,1.11,3.07,3.15,3.07,5.35v98.84ZM379.06,463.1c-39.12,0-70.83-31.71-70.83-70.83s31.71-70.83,70.83-70.83,70.83,31.71,70.83,70.83-31.71,70.83-70.83,70.83ZM661.68,539.96c0,1.91-1,3.68-2.64,4.66l-257.32,153.95c-3.62,2.16-8.21-.44-8.21-4.66v-102c0-1.92,1.02-3.7,2.67-4.67l257.32-151.73c3.62-2.13,8.18.47,8.18,4.67v99.78Z"/></svg>